<svg width="1463" height="782" viewBox="0 0 1463 782" fill="none" xmlns="http://www.w3.org/2000/svg">
 <rect x="188.643" y="131" width="196" height="196" fill="#F5F5F5"/>
 <path d="M1392.12 73.6381C1439.14 120.685 1462.64 178.828 1462.64 248.067C1462.64 317.306 1439.14 375.45 1392.12 422.497C1345.1 469.544 1286.11 493.067 1215.14 493.067C1144.18 493.067 1085.18 469.544 1038.17 422.497C991.151 375.45 967.643 317.306 967.643 248.067C967.643 178.828 991.151 120.685 1038.17 73.6381C1085.18 26.591 1144.18 3.06738 1215.14 3.06738C1286.11 3.06738 1345.1 26.591 1392.12 73.6381ZM1116.68 352.814C1143.29 379.001 1176.11 392.315 1215.14 392.315C1254.18 392.315 1287 379.001 1313.61 352.814C1340.22 326.627 1353.53 291.564 1353.53 248.067C1353.53 204.571 1340.22 169.507 1313.61 143.321C1287 117.134 1254.18 103.819 1215.14 103.819C1176.11 103.819 1143.29 117.134 1116.68 143.321C1090.06 169.507 1076.76 204.571 1076.76 248.067C1076.76 291.564 1090.06 326.627 1116.68 352.814Z" fill="black"/>
 <path d="M0 492L200.119 3H306.88L507 492H383.601L339.232 373.775H168.23L123.861 492H0ZM231.5 196L203.355 277.631H303.183L273.604 198.048L266.672 179.647C262.512 169.987 257.622 155.061 253 138.5C252.076 141.72 249.849 146.52 248 152.5C246.151 158.48 243.887 164.36 242.5 168.5C241.113 172.64 240.887 174.78 239.5 178L234.5 188.5L231.5 196Z" fill="black"/>
 <path d="M805 3V294.107C805 355.131 785.612 403.498 746.374 439.208C707.598 474.919 656.819 493 594.5 493C532.181 493 481.864 474.919 442.626 439.208C403.85 403.498 384 355.131 384 294.107V3H497.559V280.094C497.559 316.257 506.33 343.378 524.334 361.911C541.875 380.445 565.418 389.937 594.5 389.937C623.582 389.937 646.663 380.445 664.666 361.911C682.67 343.378 691.441 316.257 691.441 280.094V3H805Z" fill="black"/>
 <g filter="url(#filter0_d_1_3)">
  <path d="M573.906 226.867C518.5 198.722 439.5 158.338 384.5 130.5C348.948 112.506 336.59 107.494 301.5 89.5C248.403 62.7394 194.379 34.0059 140.82 7.24522C128.354 1.24715 116.35 1.24715 106.192 9.55217C90.4936 19.7028 86.8 34.4673 95.5725 57.9982C115.426 109.212 134.356 160.888 157.904 210.718C171.293 239.324 166.676 261.933 153.748 287.31C126.507 339.447 99.7278 392.045 72.9485 444.644C66.0229 458.485 70.1782 471.865 80.3358 482.477C90.9552 493.551 104.345 496.319 118.658 490.321C170.37 468.175 222.082 445.105 273.332 422.497C333.816 396.197 393.838 369.898 454.322 343.599C494.491 326.066 534.66 307.61 574.829 290.539C589.604 284.08 595.145 272.545 594.683 257.78C594.683 242.555 586.834 233.326 573.906 226.867ZM203.151 277.62L232.701 197.8L239.626 179.344C241.012 176.114 242.397 172.423 243.782 168.271C245.167 164.118 247.014 159.043 248.861 153.044C250.707 147.046 252.093 142.894 253.016 139.203C257.633 155.813 262.25 169.194 266.406 178.883L273.332 197.338L302.881 277.159H203.151V277.62Z" fill="#F5F5F5"/>
 </g>
 <path d="M136.625 159.437L188.718 31.3087C173.044 23.4452 157.37 15.1194 141.696 7.25595C129.249 1.24272 117.263 1.24272 107.122 9.56873C91.4478 19.745 87.7599 34.5468 96.5188 58.1371C109.427 91.9038 122.796 126.133 136.625 159.437Z" fill="black"/>
 <path d="M338.701 375.47H168.13L126.64 487.211C175.967 466.058 225.294 444.446 274.16 422.833C297.672 412.717 321.183 402.141 345.155 392.024L338.701 375.47Z" fill="#F5F5F5"/>
 <path d="M352 114C335.371 105.701 317.307 96.5666 300.678 88.2673C263.262 69.3633 225.916 49.904 188.5 31L135.5 160.5C142.891 177.56 150.091 193.853 157.944 210.913C171.34 239.499 166.72 262.092 153.786 287.451C126.533 339.552 99.7415 392.115 72.95 444.677C66.0212 458.509 70.1787 471.88 80.341 482.485C90.9652 493.55 104.361 496.317 118.68 490.323C120.99 489.401 123.3 488.478 125.609 487.095L167.182 375.055H339.5L345.5 391C379.22 376.246 412.001 362.145 445.722 347.391L352 114ZM202.75 277.768L232.313 198.003L239.242 179.56C240.628 176.332 242.014 172.644 243.399 168.494C244.785 164.344 246.633 159.272 248.48 153.278C250.328 147.284 251.714 143.135 252.638 139.446C266.034 179.099 262.5 169.5 266.034 179.099L272.963 197.542L302.525 277.307H202.75V277.768Z" fill="url(#paint0_linear_1_3)"/>
 <path d="M134.089 327.048C140.909 313.761 147.729 300.473 154.548 286.727C160.914 274.356 165.46 262.443 166.37 250.071C165.46 262.443 160.914 274.356 154.548 286.727C147.274 300.473 140.909 313.761 134.089 327.048Z" fill="black"/>
 <path d="M74.4939 473.553C76.3059 476.417 78.571 479.759 80.836 482.145C88.5371 490.737 98.0501 494.556 108.016 493.124C98.0501 494.556 88.5371 490.737 80.836 482.145C78.118 479.759 75.8529 476.894 74.4939 473.553Z" fill="black"/>
 <path d="M502.834 322.231C500.521 311.165 498.671 299.176 498.671 285.805V188.516C468.143 173.301 438.078 157.624 407.55 142.408C400.149 138.719 392.286 134.57 384.885 130.881V300.099C384.885 325.458 389.048 348.051 395.523 369.261C415.413 360.501 434.84 352.201 454.729 343.441C470.918 336.524 486.645 329.147 502.834 322.231Z" fill="url(#paint1_linear_1_3)"/>
 <path d="M691.551 102.652V3H1093.82V102.652H949.297V493.418H836.073V102.652H691.551Z" fill="black"/>
 <path d="M135.5 160.5L188.718 31.3087C173.044 23.4452 157.37 15.1194 141.696 7.25595C129.249 1.24272 117.263 1.24272 107.122 9.56873C91.4478 19.745 87.7599 34.5468 96.5188 58.1371C109.427 91.9038 121.67 127.196 135.5 160.5Z" fill="#F5F5F5"/>
 <path d="M497.867 285.68C497.867 299.043 499.25 311.023 502.017 322.082C525.99 311.484 550.425 300.425 574.859 289.827C589.612 283.376 595.144 271.856 594.683 257.111C594.222 242.827 586.845 233.15 573.476 226.699C548.119 213.797 523.224 200.895 497.867 187.993V285.68Z" fill="#F5F5F5"/>
 <path d="M1222.64 3.06738H1081.64V50.0674H1222.64V3.06738Z" fill="black"/>
 <path d="M575 465H477V492H575V465Z" fill="black"/>
 <path d="M85.7621 780.267C83.5621 780.267 81.6621 779.567 80.0621 778.167C78.6621 776.767 77.9621 775.067 77.9621 773.067V581.067H12.8621C10.8621 581.067 9.16211 580.367 7.76211 578.967C6.36211 577.367 5.66211 575.567 5.66211 573.567C5.66211 571.567 6.36211 569.867 7.76211 568.467C9.16211 566.867 10.8621 566.067 12.8621 566.067H158.062C160.062 566.067 161.762 566.867 163.162 568.467C164.762 569.867 165.562 571.567 165.562 573.567C165.562 575.567 164.762 577.367 163.162 578.967C161.762 580.367 160.062 581.067 158.062 581.067H92.9621V773.067C92.9621 775.067 92.2621 776.767 90.8621 778.167C89.4621 779.567 87.7621 780.267 85.7621 780.267Z" fill="black"/>
 <path d="M245.782 780.267C243.782 780.267 241.982 779.567 240.382 778.167C238.982 776.767 238.282 775.067 238.282 773.067V573.567C238.282 571.567 238.982 569.867 240.382 568.467C241.982 566.867 243.782 566.067 245.782 566.067H319.582C330.782 566.067 340.882 568.867 349.882 574.467C359.082 579.867 366.382 587.167 371.782 596.367C377.382 605.367 380.182 615.367 380.182 626.367C380.182 635.767 378.082 644.567 373.882 652.767C369.882 660.967 364.382 667.967 357.382 673.767C350.382 679.367 342.382 683.167 333.382 685.167L379.882 769.467C380.882 771.467 381.082 773.467 380.482 775.467C379.882 777.267 378.782 778.667 377.182 779.667C375.182 780.667 373.182 780.867 371.182 780.267C369.382 779.667 367.982 778.467 366.982 776.667L317.482 686.967H273.682C271.682 686.967 269.882 686.267 268.282 684.867C266.882 683.267 266.182 681.467 266.182 679.467C266.182 677.267 266.882 675.467 268.282 674.067C269.882 672.667 271.682 671.967 273.682 671.967H319.582C327.982 671.967 335.582 669.967 342.382 665.967C349.382 661.767 354.882 656.267 358.882 649.467C363.082 642.467 365.182 634.767 365.182 626.367C365.182 617.967 363.082 610.367 358.882 603.567C354.882 596.767 349.382 591.367 342.382 587.367C335.582 583.167 327.982 581.067 319.582 581.067H253.282V773.067C253.282 775.067 252.582 776.767 251.182 778.167C249.782 779.567 247.982 780.267 245.782 780.267Z" fill="black"/>
 <path d="M452.036 778.467C450.036 777.867 448.636 776.667 447.836 774.867C447.036 772.867 447.036 770.867 447.836 768.867L523.136 565.767C524.536 562.567 526.936 560.967 530.336 560.967C533.736 560.967 536.136 562.567 537.536 565.767L613.136 768.867C613.936 770.867 613.836 772.867 612.836 774.867C612.036 776.667 610.636 777.867 608.636 778.467C606.836 779.267 604.936 779.167 602.936 778.167C601.136 777.367 599.836 775.967 599.036 773.967L530.336 590.067L488.636 701.367H545.336C547.336 701.367 549.036 702.167 550.436 703.767C551.836 705.167 552.536 706.967 552.536 709.167C552.536 711.167 551.836 712.867 550.436 714.267C549.036 715.667 547.336 716.367 545.336 716.367H482.936L461.636 773.967C460.836 775.967 459.536 777.367 457.736 778.167C455.936 779.167 454.036 779.267 452.036 778.467Z" fill="black"/>
 <path d="M748.919 781.467C725.519 781.467 707.219 774.967 694.019 761.967C681.019 748.767 674.519 730.467 674.519 707.067V635.367C674.519 611.967 681.019 593.767 694.019 580.767C707.219 567.567 725.519 560.967 748.919 560.967C760.319 560.967 771.119 563.467 781.319 568.467C791.519 573.467 800.119 580.467 807.119 589.467C808.519 591.067 809.119 592.867 808.919 594.867C808.719 596.867 807.819 598.567 806.219 599.967C804.419 601.167 802.419 601.667 800.219 601.467C798.219 601.067 796.619 600.167 795.419 598.767C789.819 591.567 782.919 585.967 774.719 581.967C766.519 577.967 757.919 575.967 748.919 575.967C730.319 575.967 715.719 581.267 705.119 591.867C694.719 602.267 689.519 616.767 689.519 635.367V707.067C689.519 725.667 694.719 740.267 705.119 750.867C715.719 761.267 730.319 766.467 748.919 766.467C757.919 766.467 766.519 764.567 774.719 760.767C782.919 756.767 789.819 751.167 795.419 743.967C796.619 742.367 798.219 741.467 800.219 741.267C802.419 740.867 804.419 741.367 806.219 742.767C807.819 743.967 808.719 745.667 808.919 747.867C809.119 749.867 808.519 751.667 807.119 753.267C800.119 762.267 791.519 769.267 781.319 774.267C771.119 779.067 760.319 781.467 748.919 781.467Z" fill="black"/>
 <path d="M893.348 779.967C891.348 779.967 889.548 779.267 887.948 777.867C886.548 776.467 885.848 774.767 885.848 772.767V569.367C885.848 567.167 886.548 565.367 887.948 563.967C889.548 562.367 891.348 561.567 893.348 561.567C895.548 561.567 897.348 562.367 898.748 563.967C900.148 565.367 900.848 567.167 900.848 569.367V680.667L1009.45 564.567C1010.85 562.967 1012.55 562.167 1014.55 562.167C1016.55 561.967 1018.25 562.667 1019.65 564.267C1021.25 565.667 1022.05 567.367 1022.05 569.367C1022.25 571.367 1021.55 573.167 1019.95 574.767L949.748 650.367L1025.95 768.567C1027.15 770.167 1027.45 772.067 1026.85 774.267C1026.45 776.267 1025.45 777.767 1023.85 778.767C1022.05 779.967 1020.05 780.267 1017.85 779.667C1015.85 779.267 1014.35 778.267 1013.35 776.667L939.248 661.767L900.848 702.867V772.767C900.848 774.767 900.148 776.467 898.748 777.867C897.348 779.267 895.548 779.967 893.348 779.967Z" fill="black"/>
 <path d="M1109.01 776.067C1107.01 776.067 1105.21 775.367 1103.61 773.967C1102.21 772.367 1101.51 770.567 1101.51 768.567V573.567C1101.51 571.567 1102.21 569.867 1103.61 568.467C1105.21 566.867 1107.01 566.067 1109.01 566.067H1214.31C1216.51 566.067 1218.31 566.867 1219.71 568.467C1221.11 569.867 1221.81 571.567 1221.81 573.567C1221.81 575.567 1221.11 577.367 1219.71 578.967C1218.31 580.367 1216.51 581.067 1214.31 581.067H1116.51V661.767H1197.81C1199.81 661.767 1201.51 662.467 1202.91 663.867C1204.51 665.267 1205.31 667.067 1205.31 669.267C1205.31 671.267 1204.51 673.067 1202.91 674.667C1201.51 676.067 1199.81 676.767 1197.81 676.767H1116.51V761.067H1214.31C1216.51 761.067 1218.31 761.767 1219.71 763.167C1221.11 764.567 1221.81 766.367 1221.81 768.567C1221.81 770.567 1221.11 772.367 1219.71 773.967C1218.31 775.367 1216.51 776.067 1214.31 776.067H1109.01Z" fill="black"/>
 <path d="M1307.97 780.267C1305.97 780.267 1304.17 779.567 1302.57 778.167C1301.17 776.767 1300.47 775.067 1300.47 773.067V573.567C1300.47 571.567 1301.17 569.867 1302.57 568.467C1304.17 566.867 1305.97 566.067 1307.97 566.067H1381.77C1392.97 566.067 1403.07 568.867 1412.07 574.467C1421.27 579.867 1428.57 587.167 1433.97 596.367C1439.57 605.367 1442.37 615.367 1442.37 626.367C1442.37 635.767 1440.27 644.567 1436.07 652.767C1432.07 660.967 1426.57 667.967 1419.57 673.767C1412.57 679.367 1404.57 683.167 1395.57 685.167L1442.07 769.467C1443.07 771.467 1443.27 773.467 1442.67 775.467C1442.07 777.267 1440.97 778.667 1439.37 779.667C1437.37 780.667 1435.37 780.867 1433.37 780.267C1431.57 779.667 1430.17 778.467 1429.17 776.667L1379.67 686.967H1335.87C1333.87 686.967 1332.07 686.267 1330.47 684.867C1329.07 683.267 1328.37 681.467 1328.37 679.467C1328.37 677.267 1329.07 675.467 1330.47 674.067C1332.07 672.667 1333.87 671.967 1335.87 671.967H1381.77C1390.17 671.967 1397.77 669.967 1404.57 665.967C1411.57 661.767 1417.07 656.267 1421.07 649.467C1425.27 642.467 1427.37 634.767 1427.37 626.367C1427.37 617.967 1425.27 610.367 1421.07 603.567C1417.07 596.767 1411.57 591.367 1404.57 587.367C1397.77 583.167 1390.17 581.067 1381.77 581.067H1315.47V773.067C1315.47 775.067 1314.77 776.767 1313.37 778.167C1311.97 779.567 1310.17 780.267 1307.97 780.267Z" fill="black"/>
 <defs>
  <filter id="filter0_d_1_3" x="60.5276" y="0" width="543.182" height="508.418" filterUnits="userSpaceOnUse" color-interpolation-filters="sRGB">
   <feFlood flood-opacity="0" result="BackgroundImageFix"/>
   <feColorMatrix in="SourceAlpha" type="matrix" values="0 0 0 0 0 0 0 0 0 0 0 0 0 0 0 0 0 0 127 0" result="hardAlpha"/>
   <feOffset dy="6"/>
   <feGaussianBlur stdDeviation="4.5"/>
   <feComposite in2="hardAlpha" operator="out"/>
   <feColorMatrix type="matrix" values="0 0 0 0 0 0 0 0 0 0 0 0 0 0 0 0 0 0 0.25 0"/>
   <feBlend mode="normal" in2="BackgroundImageFix" result="effect1_dropShadow_1_3"/>
   <feBlend mode="normal" in="SourceGraphic" in2="effect1_dropShadow_1_3" result="shape"/>
  </filter>
  <linearGradient id="paint0_linear_1_3" x1="69.2358" y1="261.932" x2="446.079" y2="261.932" gradientUnits="userSpaceOnUse">
   <stop stop-color="#FF3C1F"/>
   <stop offset="1" stop-color="#FF9F1F"/>
  </linearGradient>
  <linearGradient id="paint1_linear_1_3" x1="385.021" y1="249.874" x2="502.734" y2="249.874" gradientUnits="userSpaceOnUse">
   <stop stop-color="#FF3A1F"/>
   <stop offset="1" stop-color="#FF881F"/>
  </linearGradient>
 </defs>
</svg>